<mxfile host="Electron" agent="Mozilla/5.0 (X11; Linux x86_64) AppleWebKit/537.36 (KHTML, like Gecko) draw.io/24.7.8 Chrome/128.0.6613.162 Electron/32.1.2 Safari/537.36" version="24.7.8">
  <diagram name="Page-1" id="IAfnyY4QTt2gZGbyslWm">
    <mxGraphModel dx="1953" dy="1134" grid="1" gridSize="10" guides="1" tooltips="1" connect="1" arrows="1" fold="1" page="1" pageScale="1" pageWidth="3300" pageHeight="2339" math="0" shadow="0">
      <root>
        <mxCell id="0" />
        <mxCell id="1" parent="0" />
        <mxCell id="KvGx6T3HbXrMcQg6L9eH-1" value="Host 1" style="rounded=0;whiteSpace=wrap;html=1;fillColor=#f5f5f5;fontColor=#333333;strokeColor=#666666;fontSize=20;verticalAlign=top;" vertex="1" parent="1">
          <mxGeometry x="20" y="20" width="285" height="350" as="geometry" />
        </mxCell>
        <mxCell id="KvGx6T3HbXrMcQg6L9eH-35" style="edgeStyle=orthogonalEdgeStyle;rounded=0;orthogonalLoop=1;jettySize=auto;html=1;entryX=0.5;entryY=1;entryDx=0;entryDy=0;exitX=0.5;exitY=1;exitDx=0;exitDy=0;" edge="1" parent="1" source="KvGx6T3HbXrMcQg6L9eH-2" target="KvGx6T3HbXrMcQg6L9eH-28">
          <mxGeometry relative="1" as="geometry">
            <Array as="points">
              <mxPoint x="162.5" y="420" />
              <mxPoint x="555.5" y="420" />
            </Array>
          </mxGeometry>
        </mxCell>
        <mxCell id="KvGx6T3HbXrMcQg6L9eH-36" value="Ethernet packets with VLAN PCP" style="edgeLabel;html=1;align=center;verticalAlign=middle;resizable=0;points=[];fontSize=16;" vertex="1" connectable="0" parent="KvGx6T3HbXrMcQg6L9eH-35">
          <mxGeometry x="0.0802" y="-2" relative="1" as="geometry">
            <mxPoint x="-26" as="offset" />
          </mxGeometry>
        </mxCell>
        <mxCell id="KvGx6T3HbXrMcQg6L9eH-2" value="Network Driver" style="rounded=0;whiteSpace=wrap;html=1;fontSize=16;fillColor=#dae8fc;strokeColor=#6c8ebf;" vertex="1" parent="1">
          <mxGeometry x="102.5" y="310" width="120" height="60" as="geometry" />
        </mxCell>
        <mxCell id="KvGx6T3HbXrMcQg6L9eH-10" style="edgeStyle=orthogonalEdgeStyle;rounded=0;orthogonalLoop=1;jettySize=auto;html=1;" edge="1" parent="1" source="KvGx6T3HbXrMcQg6L9eH-3" target="KvGx6T3HbXrMcQg6L9eH-2">
          <mxGeometry relative="1" as="geometry" />
        </mxCell>
        <mxCell id="KvGx6T3HbXrMcQg6L9eH-11" value="&lt;font style=&quot;font-size: 16px;&quot;&gt;data + traffic class (TC)&lt;/font&gt;" style="edgeLabel;html=1;align=center;verticalAlign=middle;resizable=0;points=[];" vertex="1" connectable="0" parent="KvGx6T3HbXrMcQg6L9eH-10">
          <mxGeometry y="4" relative="1" as="geometry">
            <mxPoint x="-4" as="offset" />
          </mxGeometry>
        </mxCell>
        <mxCell id="KvGx6T3HbXrMcQg6L9eH-3" value="Linux TC" style="rounded=0;whiteSpace=wrap;html=1;fontSize=16;fillColor=#dae8fc;strokeColor=#6c8ebf;" vertex="1" parent="1">
          <mxGeometry x="102.5" y="190" width="120" height="60" as="geometry" />
        </mxCell>
        <mxCell id="KvGx6T3HbXrMcQg6L9eH-24" style="edgeStyle=orthogonalEdgeStyle;rounded=0;orthogonalLoop=1;jettySize=auto;html=1;entryX=0.5;entryY=0;entryDx=0;entryDy=0;" edge="1" parent="1" source="KvGx6T3HbXrMcQg6L9eH-7" target="KvGx6T3HbXrMcQg6L9eH-3">
          <mxGeometry relative="1" as="geometry" />
        </mxCell>
        <mxCell id="KvGx6T3HbXrMcQg6L9eH-25" value="data + SO_PRIORITY" style="edgeLabel;html=1;align=center;verticalAlign=middle;resizable=0;points=[];fontSize=16;" vertex="1" connectable="0" parent="KvGx6T3HbXrMcQg6L9eH-24">
          <mxGeometry x="0.2" y="-1" relative="1" as="geometry">
            <mxPoint x="1" y="-12" as="offset" />
          </mxGeometry>
        </mxCell>
        <mxCell id="KvGx6T3HbXrMcQg6L9eH-7" value="socet.send(msg)" style="rounded=1;whiteSpace=wrap;html=1;fontSize=16;" vertex="1" parent="1">
          <mxGeometry x="82.5" y="60" width="160" height="60" as="geometry" />
        </mxCell>
        <mxCell id="KvGx6T3HbXrMcQg6L9eH-27" value="Host 2" style="rounded=0;whiteSpace=wrap;html=1;fillColor=#f5f5f5;fontColor=#333333;strokeColor=#666666;fontSize=20;verticalAlign=top;" vertex="1" parent="1">
          <mxGeometry x="412.5" y="20" width="285" height="350" as="geometry" />
        </mxCell>
        <mxCell id="KvGx6T3HbXrMcQg6L9eH-28" value="Network Driver" style="rounded=0;whiteSpace=wrap;html=1;fontSize=16;fillColor=#dae8fc;strokeColor=#6c8ebf;" vertex="1" parent="1">
          <mxGeometry x="495" y="310" width="120" height="60" as="geometry" />
        </mxCell>
        <mxCell id="KvGx6T3HbXrMcQg6L9eH-29" style="edgeStyle=orthogonalEdgeStyle;rounded=0;orthogonalLoop=1;jettySize=auto;html=1;startArrow=classic;startFill=1;endArrow=none;endFill=0;" edge="1" parent="1" source="KvGx6T3HbXrMcQg6L9eH-31" target="KvGx6T3HbXrMcQg6L9eH-28">
          <mxGeometry relative="1" as="geometry" />
        </mxCell>
        <mxCell id="KvGx6T3HbXrMcQg6L9eH-30" value="&lt;font style=&quot;font-size: 16px;&quot;&gt;data + traffic class (TC)&lt;/font&gt;" style="edgeLabel;html=1;align=center;verticalAlign=middle;resizable=0;points=[];" vertex="1" connectable="0" parent="KvGx6T3HbXrMcQg6L9eH-29">
          <mxGeometry y="4" relative="1" as="geometry">
            <mxPoint x="-4" as="offset" />
          </mxGeometry>
        </mxCell>
        <mxCell id="KvGx6T3HbXrMcQg6L9eH-31" value="Linux TC" style="rounded=0;whiteSpace=wrap;html=1;fontSize=16;fillColor=#dae8fc;strokeColor=#6c8ebf;" vertex="1" parent="1">
          <mxGeometry x="495" y="190" width="120" height="60" as="geometry" />
        </mxCell>
        <mxCell id="KvGx6T3HbXrMcQg6L9eH-32" style="edgeStyle=orthogonalEdgeStyle;rounded=0;orthogonalLoop=1;jettySize=auto;html=1;entryX=0.5;entryY=0;entryDx=0;entryDy=0;startArrow=classic;startFill=1;endArrow=none;endFill=0;" edge="1" parent="1" source="KvGx6T3HbXrMcQg6L9eH-34" target="KvGx6T3HbXrMcQg6L9eH-31">
          <mxGeometry relative="1" as="geometry" />
        </mxCell>
        <mxCell id="KvGx6T3HbXrMcQg6L9eH-33" value="data + SO_PRIORITY" style="edgeLabel;html=1;align=center;verticalAlign=middle;resizable=0;points=[];fontSize=16;" vertex="1" connectable="0" parent="KvGx6T3HbXrMcQg6L9eH-32">
          <mxGeometry x="0.2" y="-1" relative="1" as="geometry">
            <mxPoint x="1" y="-12" as="offset" />
          </mxGeometry>
        </mxCell>
        <mxCell id="KvGx6T3HbXrMcQg6L9eH-34" value="socet.recv()" style="rounded=1;whiteSpace=wrap;html=1;fontSize=16;" vertex="1" parent="1">
          <mxGeometry x="475" y="60" width="160" height="60" as="geometry" />
        </mxCell>
      </root>
    </mxGraphModel>
  </diagram>
</mxfile>
